<svg id="Layer_1" data-name="Layer 1" xmlns="http://www.w3.org/2000/svg" viewBox="0 0 500 500"><defs><style>.cls-1{fill:#7faee7;}</style></defs><title>Logo</title><path class="cls-1" d="M250,500C112.15,500,0,387.85,0,250S112.15,0,250,0,500,112.15,500,250,387.85,500,250,500Zm0-485.61C120.08,14.39,14.39,120.08,14.39,250S120.08,485.61,250,485.61,485.61,379.92,485.61,250,379.92,14.39,250,14.39Z"/><path class="cls-1" d="M248.2,93.53,104.32,248.2h46.76V366.91h64.75V295h64.75v71.94h64.75V248.2h46.76Zm36,151.08H212.23V194.24h14.39v36h43.17v-36h14.39Z"/></svg>